<?xml version="1.0" encoding="iso-8859-1"?>
<!-- Generator: Adobe Illustrator 19.0.0, SVG Export Plug-In . SVG Version: 6.00 Build 0)  -->
<svg xmlns="http://www.w3.org/2000/svg" xmlns:xlink="http://www.w3.org/1999/xlink" version="1.1" id="Layer_1" x="0px" y="0px" viewBox="0 0 512.034 512.034" style="enable-background:new 0 0 512.034 512.034;" xml:space="preserve" width="512" height="512">
<g>
	<path d="M279.834,283.549c6.504,0,12.618-2.532,17.217-7.131c9.493-9.493,9.493-24.94,0-34.434   c-5.437-5.437-27.701-11.884-50.688-16.26c4.383,22.996,10.831,45.269,16.256,50.693   C267.216,281.017,273.33,283.549,279.834,283.549z"/>
	<polygon points="0,420.575 30,420.575 30,386.429 201.666,433.382 87.571,278.314 30,288.599 30,254.387 0,254.387  "/>
	<path d="M435.975,188.631c11.903-16.758,18.342-36.736,18.388-57.712c0.058-26.794-10.321-52.007-29.227-70.995   c-18.905-18.987-44.073-29.476-70.867-29.534c-0.075,0-0.148,0-0.224,0c-26.71,0-51.837,10.375-70.771,29.227l-9.05,9.011   l-38.032-28.216L70.88,205.008l203.542,276.636L512.034,245.06L435.975,188.631z M304.442,80.876   c13.272-13.215,30.882-20.486,49.604-20.486c0.052,0,0.105,0,0.157,0c18.781,0.041,36.422,7.393,49.673,20.702   c13.252,13.309,20.527,30.981,20.486,49.762c-0.032,14.469-4.418,28.252-12.51,39.882L298.589,86.704L304.442,80.876z    M318.265,297.631c-10.266,10.265-23.914,15.918-38.431,15.918s-28.165-5.653-38.43-15.918   c-5.444-5.444-13.614-16.84-21.679-52.796c-4.123-18.383-6.271-34.597-6.36-35.278l-2.542-19.366l19.366,2.542   c0.681,0.089,16.896,2.236,35.278,6.359c35.957,8.065,47.353,16.235,52.797,21.68C339.453,241.961,339.453,276.44,318.265,297.631z   "/>
</g>















</svg>
